<svg xmlns="http://www.w3.org/2000/svg" viewBox="0 0 2048 1024" width="2048" height="1024">
<rect width="2048" height="1024" fill="#5b9bd5"/>
<path d="M180,80L260,60L340,75L420,90L480,120L510,160L500,200L460,240L420,280L360,310L300,340L260,360L220,340L190,300L160,260L140,220L130,180L140,140Z" fill="#7db87d" opacity="0.9"/>
<path d="M360,40L420,30L460,50L440,80L400,90L370,80L350,60Z" fill="#8ec88e" opacity="0.85"/>
<path d="M240,340L280,350L300,380L290,410L270,430L250,420L240,390L230,360Z" fill="#7db87d" opacity="0.9"/>
<path d="M280,440L320,420L360,440L380,490L370,550L350,610L320,660L290,680L270,650L260,590L270,530L280,470Z" fill="#7db87d" opacity="0.9"/>
<path d="M920,140L980,120L1040,130L1080,160L1060,200L1000,220L940,210L900,190L890,170Z" fill="#7db87d" opacity="0.9"/>
<path d="M960,80L1000,60L1040,70L1050,100L1030,130L990,140L960,120Z" fill="#7db87d" opacity="0.85"/>
<path d="M940,240L1020,220L1100,240L1160,280L1180,340L1160,420L1100,490L1020,510L960,490L920,440L910,380L920,320L910,270Z" fill="#7db87d" opacity="0.9"/>
<path d="M1180,420L1200,410L1210,450L1195,470L1180,460L1175,440Z" fill="#7db87d" opacity="0.85"/>
<path d="M1080,100L1200,80L1360,70L1480,90L1580,130L1640,180L1680,240L1660,300L1580,340L1460,350L1340,330L1240,300L1160,260L1100,220L1060,170Z" fill="#7db87d" opacity="0.9"/>
<path d="M1100,220L1180,210L1220,240L1200,290L1140,310L1100,290L1080,260Z" fill="#c4a96d" opacity="0.85"/>
<path d="M1260,270L1340,260L1380,300L1360,360L1300,400L1240,380L1230,330L1240,290Z" fill="#7db87d" opacity="0.9"/>
<path d="M1380,320L1460,300L1520,320L1540,360L1500,400L1420,410L1370,380Z" fill="#7db87d" opacity="0.9"/>
<path d="M1560,160L1580,150L1590,180L1580,210L1560,220L1550,200L1555,170Z" fill="#7db87d" opacity="0.85"/>
<path d="M1560,560L1660,540L1760,560L1800,620L1780,680L1700,710L1600,700L1540,660L1530,610Z" fill="#c49a6c" opacity="0.9"/>
<path d="M120,100L200,80L260,100L250,140L200,150L140,140Z" fill="#7db87d" opacity="0.8"/>
<path d="M880,150L900,140L910,170L895,190L880,180L875,160Z" fill="#7db87d" opacity="0.85"/>
<path d="M820,100L850,90L860,110L840,120L820,115Z" fill="#8ec88e" opacity="0.8"/>
</svg>
